<?xml version="1.0" encoding="UTF-8"?>
<svg xmlns="http://www.w3.org/2000/svg" id="Layer_2" data-name="Layer 2" viewBox="0 0 518.76 140.52">
  
  <g id="Layer_1-2" data-name="Layer 1">
    <g>
      <path fill="#263445" d="m33.44,80.95c-1.18,2.22-2.81,3.96-4.87,5.23-2.06,1.28-4.46,1.91-7.19,1.91s-5.05-.64-7.14-1.91-3.7-3.02-4.82-5.23c-1.12-2.21-1.68-4.75-1.68-7.6s.58-5.48,1.73-7.69c1.15-2.21,2.76-3.96,4.82-5.23,2.06-1.27,4.43-1.91,7.1-1.91s5.13.64,7.19,1.91c2.06,1.27,3.69,3.02,4.87,5.23,1.18,2.22,1.78,4.75,1.78,7.6s-.59,5.48-1.78,7.69m-.01-27.17c-3.19-2-6.75-3-10.69-3-3.22,0-6.14.68-8.78,2.05-2.34,1.21-4.25,2.85-5.78,4.87v-6.01H0v61.34h8.19v-24.08c1.5,2.01,3.38,3.64,5.69,4.83,2.64,1.36,5.6,2.05,8.87,2.05,3.94,0,7.51-.99,10.69-2.96,3.19-1.97,5.69-4.66,7.51-8.05,1.82-3.4,2.73-7.22,2.73-11.47s-.91-8.07-2.73-11.47-4.32-6.1-7.51-8.1"></path>
      <path fill="#263445" d="m78.81,51.92c-1.76-.76-3.73-1.14-5.92-1.14-4.79,0-8.47,1.64-11.01,4.92-.26.33-.49.69-.73,1.04v-5.05h-8.19v43.23h8.19v-24.57c0-4,.97-6.98,2.91-8.92,1.94-1.94,4.43-2.91,7.46-2.91,1.46,0,2.73.21,3.82.64s2.09,1.12,3,2.09l5.37-5.55c-1.52-1.76-3.16-3.02-4.92-3.78"></path>
      <path fill="#263445" d="m100.01,60.15c2.12-1.21,4.58-1.82,7.37-1.82s4.94.56,6.83,1.68c1.88,1.12,3.34,2.7,4.37,4.73.7,1.38,1.15,2.99,1.37,4.78h-26.26c.28-1.56.73-2.99,1.41-4.28,1.15-2.18,2.79-3.88,4.92-5.1m18.1-6.63c-3.09-1.82-6.61-2.73-10.56-2.73-4.19,0-7.96.99-11.33,2.96s-6.04,4.66-8.01,8.05c-1.97,3.4-2.96,7.22-2.96,11.47s1,8.16,3,11.56c2,3.4,4.72,6.08,8.15,8.05s7.33,2.96,11.7,2.96c3.4,0,6.58-.64,9.56-1.91,2.97-1.27,5.52-3.12,7.65-5.55l-5.28-5.37c-1.46,1.7-3.2,2.97-5.23,3.82s-4.26,1.27-6.69,1.27c-2.91,0-5.49-.62-7.74-1.87-2.24-1.24-3.97-3-5.19-5.28-.74-1.38-1.23-2.93-1.51-4.6h33.82c.18-.85.3-1.62.36-2.32.06-.7.09-1.35.09-1.96,0-4.12-.86-7.79-2.59-11.01-1.73-3.21-4.14-5.73-7.24-7.55"></path>
      <path fill="#263445" d="m149.34,60.56c2.12-1.24,4.55-1.87,7.28-1.87,2.24,0,4.34.41,6.28,1.23s3.58,2.02,4.92,3.6l5.46-5.46c-2.06-2.37-4.52-4.17-7.37-5.42-2.85-1.24-5.95-1.87-9.28-1.87-4.25,0-8.09.99-11.51,2.96-3.43,1.97-6.13,4.66-8.1,8.05-1.97,3.4-2.96,7.22-2.96,11.47s.99,8,2.96,11.42c1.97,3.43,4.67,6.14,8.1,8.15,3.43,2,7.27,3,11.51,3,3.34,0,6.45-.64,9.33-1.91s5.32-3.06,7.33-5.37l-5.37-5.46c-1.4,1.58-3.05,2.78-4.96,3.6s-4.02,1.23-6.33,1.23c-2.73,0-5.16-.64-7.28-1.91-2.13-1.28-3.79-3-5.01-5.19-1.21-2.18-1.82-4.7-1.82-7.55s.61-5.37,1.82-7.55,2.88-3.9,5.01-5.14"></path>
      <path fill="#263445" d="m185.56,32.58c-1.52,0-2.76.5-3.73,1.5s-1.46,2.23-1.46,3.69.49,2.78,1.46,3.78,2.21,1.5,3.73,1.5,2.76-.5,3.73-1.5,1.46-2.26,1.46-3.78-.49-2.69-1.46-3.69-2.21-1.5-3.73-1.5"></path>
      <rect fill="#263445" x="181.38" y="51.69" width="8.28" height="43.23"></rect>
      <path fill="#263445" d="m210.18,59.52c1.24-.85,3.05-1.27,5.42-1.27,2.24,0,4.25.43,6.01,1.27,1.76.85,3.28,2.06,4.55,3.64l5.28-5.28c-1.7-2.37-3.87-4.14-6.51-5.32s-5.66-1.78-9.06-1.78c-3.22,0-5.98.52-8.28,1.55-2.31,1.03-4.08,2.5-5.32,4.41-1.25,1.91-1.87,4.17-1.87,6.78s.56,4.72,1.68,6.32c1.12,1.61,2.56,2.87,4.32,3.78,1.76.91,3.62,1.64,5.6,2.18,1.97.55,3.84,1.11,5.6,1.68,1.76.58,3.2,1.31,4.32,2.18,1.12.88,1.68,2.11,1.68,3.69s-.7,2.81-2.09,3.69c-1.4.88-3.37,1.32-5.92,1.32s-4.85-.47-6.92-1.41c-2.06-.94-3.88-2.38-5.46-4.32l-5.28,5.28c1.33,1.64,2.9,3.05,4.69,4.23,1.79,1.18,3.78,2.09,5.96,2.73,2.18.64,4.49.96,6.92.96,4.85,0,8.72-1.18,11.6-3.55,2.88-2.37,4.32-5.58,4.32-9.65,0-2.67-.56-4.82-1.68-6.46s-2.56-2.94-4.32-3.91-3.61-1.74-5.55-2.32-3.81-1.14-5.6-1.68c-1.79-.55-3.23-1.21-4.32-2-1.09-.79-1.64-1.91-1.64-3.37s.62-2.52,1.87-3.37"></path>
      <rect fill="#263445" x="240.63" y="51.69" width="8.28" height="43.23"></rect>
      <g>
        <path fill="#263445" d="m244.81,32.58c-1.52,0-2.76.5-3.73,1.5s-1.46,2.23-1.46,3.69.49,2.78,1.46,3.78,2.21,1.5,3.73,1.5,2.76-.5,3.73-1.5,1.46-2.26,1.46-3.78-.49-2.69-1.46-3.69-2.21-1.5-3.73-1.5"></path>
        <path fill="#263445" d="m293.05,80.77c-1.22,2.21-2.88,3.96-5.01,5.23-2.13,1.27-4.58,1.91-7.37,1.91s-5.07-.64-7.19-1.91c-2.12-1.28-3.79-3.02-5.01-5.23-1.21-2.21-1.82-4.75-1.82-7.6s.61-5.28,1.82-7.46c1.21-2.18,2.88-3.9,5.01-5.14,2.12-1.24,4.52-1.87,7.19-1.87s5.23.62,7.33,1.87c2.09,1.25,3.76,2.96,5.01,5.14,1.24,2.18,1.86,4.67,1.86,7.46s-.6,5.39-1.82,7.6m-.86-27.03c-3.43-1.97-7.27-2.96-11.51-2.96s-7.98,1-11.38,3-6.1,4.69-8.1,8.05c-2,3.37-3,7.15-3,11.33s1,8.09,3,11.51c2,3.43,4.7,6.14,8.1,8.15,3.4,2,7.19,3,11.38,3s8.08-1,11.51-3c3.43-2,6.14-4.72,8.15-8.15,2-3.43,3-7.27,3-11.51s-1-7.98-3-11.38c-2-3.4-4.72-6.08-8.15-8.05"></path>
        <path fill="#263445" d="m349.02,59.65c-1.46-2.64-3.45-4.78-5.96-6.42-2.52-1.64-5.41-2.46-8.69-2.46s-6.22.74-8.83,2.23c-1.97,1.12-3.6,2.54-4.92,4.27v-5.59h-8.19v43.23h8.19v-25.21c0-2.19.49-4.13,1.46-5.83.97-1.7,2.3-3.03,4-4s3.64-1.46,5.83-1.46c3.28,0,5.93,1.06,7.96,3.18s3.05,4.82,3.05,8.1v25.21h8.28v-26.85c0-2.97-.73-5.78-2.18-8.42"></path>
      </g>
      <rect fill="#8fb73e" x="378.24" width="140.52" height="140.52"></rect>
      <g>
        <path fill="#ffffff" d="m429.98,81.61c-2.49,2.76-5.76,4.14-9.83,4.14-2.73,0-5.16-.64-7.28-1.91s-3.78-3.02-4.96-5.23c-1.18-2.21-1.78-4.78-1.78-7.69s.59-5.38,1.78-7.6c1.18-2.21,2.82-3.96,4.92-5.23,2.09-1.27,4.5-1.91,7.24-1.91s5.11.62,7.14,1.87c2.03,1.24,3.63,2.99,4.78,5.23,1.15,2.25,1.73,4.82,1.73,7.74,0,4.31-1.24,7.84-3.73,10.6m3.18-26.34c-1.49-1.99-3.34-3.6-5.6-4.79-2.58-1.37-5.5-2.05-8.78-2.05-4,0-7.6,1-10.79,3-3.18,2-5.7,4.7-7.55,8.1-1.85,3.4-2.78,7.22-2.78,11.47s.93,8.07,2.78,11.47,4.37,6.08,7.55,8.05c3.19,1.97,6.78,2.96,10.79,2.96,3.28,0,6.22-.68,8.83-2.05,2.25-1.18,4.09-2.78,5.55-4.76v5.89h8.28v-43.23h-8.28v5.93h0Z"></path>
        <path fill="#ffffff" d="m479.95,82.39c-2,1.15-4.37,1.73-7.1,1.73s-5.05-.59-7.15-1.77c-2.09-1.18-3.73-2.84-4.91-4.96-1.18-2.12-1.78-4.55-1.78-7.28s.59-5.14,1.78-7.24c1.18-2.09,2.81-3.73,4.87-4.92,2.06-1.18,4.46-1.77,7.19-1.77s5.02.59,7.05,1.77c2.03,1.18,3.61,2.82,4.73,4.92,1.12,2.09,1.68,4.54,1.68,7.33s-.56,5.23-1.68,7.33c-1.12,2.09-2.69,3.72-4.69,4.87m5.92-33.05v5.82c-1.45-1.97-3.3-3.56-5.6-4.73-2.64-1.34-5.66-2-9.06-2-3.88,0-7.4.96-10.56,2.87s-5.63,4.49-7.42,7.74-2.68,6.93-2.68,11.06.91,7.84,2.73,11.15,4.29,5.9,7.42,7.78c3.12,1.88,6.66,2.82,10.6,2.82,3.34,0,6.31-.67,8.92-2,2.3-1.18,4.17-2.79,5.64-4.8v5.8c0,3.94-1.31,7.09-3.91,9.42-2.61,2.34-6.1,3.5-10.47,3.5-3.34,0-6.22-.59-8.65-1.78-2.43-1.18-4.52-2.9-6.28-5.14l-5.37,5.37c2.12,2.97,4.88,5.28,8.28,6.92s7.34,2.46,11.83,2.46,8.45-.86,11.88-2.59,6.1-4.16,8.01-7.28c1.91-3.13,2.87-6.75,2.87-10.88v-41.5h-8.19,0Z"></path>
      </g>
    </g>
  </g>
</svg>
